<?xml version="1.0" encoding="UTF-8"?>
<!DOCTYPE svg PUBLIC "-//W3C//DTD SVG 1.1//EN" "http://www.w3.org/Graphics/SVG/1.1/DTD/svg11.dtd">
<svg xmlns="http://www.w3.org/2000/svg" xmlns:xlink="http://www.w3.org/1999/xlink" version="1.1" width="691px" height="1091px" viewBox="-0.5 -0.5 691 1091" style="background-color: rgb(255, 255, 255);"><defs><clipPath id="mx-clip-0-200-30-20-0"><rect x="0" y="200" width="30" height="20"/></clipPath><clipPath id="mx-clip-36-200-144-20-0"><rect x="36" y="200" width="144" height="20"/></clipPath><clipPath id="mx-clip-0-220-30-20-0"><rect x="0" y="220" width="30" height="20"/></clipPath><clipPath id="mx-clip-36-220-144-20-0"><rect x="36" y="220" width="144" height="20"/></clipPath><clipPath id="mx-clip-0-240-30-20-0"><rect x="0" y="240" width="30" height="20"/></clipPath><clipPath id="mx-clip-36-240-144-20-0"><rect x="36" y="240" width="144" height="20"/></clipPath><clipPath id="mx-clip-36-260-144-30-0"><rect x="36" y="260" width="144" height="30"/></clipPath><clipPath id="mx-clip-36-290-144-30-0"><rect x="36" y="290" width="144" height="30"/></clipPath><clipPath id="mx-clip-0-600-30-30-0"><rect x="0" y="600" width="30" height="30"/></clipPath><clipPath id="mx-clip-36-600-224-30-0"><rect x="36" y="600" width="224" height="30"/></clipPath><clipPath id="mx-clip-0-630-30-30-0"><rect x="0" y="630" width="30" height="30"/></clipPath><clipPath id="mx-clip-36-630-224-30-0"><rect x="36" y="630" width="224" height="30"/></clipPath><clipPath id="mx-clip-0-660-30-30-0"><rect x="0" y="660" width="30" height="30"/></clipPath><clipPath id="mx-clip-36-660-224-30-0"><rect x="36" y="660" width="224" height="30"/></clipPath><clipPath id="mx-clip-36-690-224-30-0"><rect x="36" y="690" width="224" height="30"/></clipPath><clipPath id="mx-clip-36-720-224-30-0"><rect x="36" y="720" width="224" height="30"/></clipPath><clipPath id="mx-clip-0-880-30-30-0"><rect x="0" y="880" width="30" height="30"/></clipPath><clipPath id="mx-clip-36-880-214-30-0"><rect x="36" y="880" width="214" height="30"/></clipPath><clipPath id="mx-clip-36-910-214-30-0"><rect x="36" y="910" width="214" height="30"/></clipPath><clipPath id="mx-clip-36-940-214-30-0"><rect x="36" y="940" width="214" height="30"/></clipPath><clipPath id="mx-clip-36-970-214-30-0"><rect x="36" y="970" width="214" height="30"/></clipPath><clipPath id="mx-clip-36-1000-214-30-0"><rect x="36" y="1000" width="214" height="30"/></clipPath><clipPath id="mx-clip-36-1030-214-30-0"><rect x="36" y="1030" width="214" height="30"/></clipPath><clipPath id="mx-clip-320-30-30-30-0"><rect x="320" y="30" width="30" height="30"/></clipPath><clipPath id="mx-clip-356-30-204-30-0"><rect x="356" y="30" width="204" height="30"/></clipPath><clipPath id="mx-clip-356-60-204-30-0"><rect x="356" y="60" width="204" height="30"/></clipPath><clipPath id="mx-clip-356-90-204-30-0"><rect x="356" y="90" width="204" height="30"/></clipPath><clipPath id="mx-clip-510-550-30-30-0"><rect x="510" y="550" width="30" height="30"/></clipPath><clipPath id="mx-clip-546-550-144-30-0"><rect x="546" y="550" width="144" height="30"/></clipPath><clipPath id="mx-clip-546-580-144-30-0"><rect x="546" y="580" width="144" height="30"/></clipPath><clipPath id="mx-clip-546-610-144-30-0"><rect x="546" y="610" width="144" height="30"/></clipPath><clipPath id="mx-clip-510-830-30-30-0"><rect x="510" y="830" width="30" height="30"/></clipPath><clipPath id="mx-clip-546-830-144-30-0"><rect x="546" y="830" width="144" height="30"/></clipPath><clipPath id="mx-clip-546-860-144-30-0"><rect x="546" y="860" width="144" height="30"/></clipPath><clipPath id="mx-clip-546-890-144-30-0"><rect x="546" y="890" width="144" height="30"/></clipPath><clipPath id="mx-clip-546-920-144-30-0"><rect x="546" y="920" width="144" height="30"/></clipPath><clipPath id="mx-clip-546-950-144-30-0"><rect x="546" y="950" width="144" height="30"/></clipPath></defs><g><path d="M 0 200 L 0 170 L 180 170 L 180 200" fill="rgb(255, 255, 255)" stroke="rgb(0, 0, 0)" stroke-miterlimit="10" pointer-events="all"/><path d="M 0 200 L 0 350 L 180 350 L 180 200" fill="none" stroke="rgb(0, 0, 0)" stroke-miterlimit="10" pointer-events="none"/><path d="M 0 200 L 180 200" fill="none" stroke="rgb(0, 0, 0)" stroke-miterlimit="10" pointer-events="none"/><path d="M 30 200 L 30 220 L 30 240 L 30 260 L 30 290 L 30 320 L 30 350" fill="none" stroke="rgb(0, 0, 0)" stroke-miterlimit="10" pointer-events="none"/><g fill="rgb(0, 0, 0)" font-family="Helvetica" font-weight="bold" pointer-events="none" text-anchor="middle" font-size="12px"><text x="89.5" y="189.5">Borrow</text></g><path d="M 0 200 M 180 200 M 180 220 L 0 220" fill="none" stroke="rgb(0, 0, 0)" stroke-linecap="square" stroke-miterlimit="10" pointer-events="none"/><path d="M 0 200 M 30 200 M 30 220 M 0 220" fill="none" stroke="rgb(0, 0, 0)" stroke-linecap="square" stroke-miterlimit="10" pointer-events="none"/><g fill="rgb(0, 0, 0)" font-family="Helvetica" font-weight="bold" pointer-events="none" clip-path="url(#mx-clip-0-200-30-20-0)" text-anchor="middle" font-size="12px"><text x="14.5" y="214.5">PK</text></g><path d="M 30 200 M 180 200 M 180 220 M 30 220" fill="none" stroke="rgb(0, 0, 0)" stroke-linecap="square" stroke-miterlimit="10" pointer-events="none"/><g fill="rgb(0, 0, 0)" font-family="Helvetica" font-weight="bold" text-decoration="underline" pointer-events="none" clip-path="url(#mx-clip-36-200-144-20-0)" font-size="12px"><text x="37.5" y="214.5">BorrowId</text></g><path d="M 0 220 M 180 220 M 180 240 L 0 240" fill="none" stroke="rgb(0, 0, 0)" stroke-linecap="square" stroke-miterlimit="10" pointer-events="none"/><path d="M 0 220 M 30 220 M 30 240 M 0 240" fill="none" stroke="rgb(0, 0, 0)" stroke-linecap="square" stroke-miterlimit="10" pointer-events="none"/><g fill="rgb(0, 0, 0)" font-family="Helvetica" font-weight="bold" pointer-events="none" clip-path="url(#mx-clip-0-220-30-20-0)" text-anchor="middle" font-size="12px"><text x="14.5" y="234.5">FK</text></g><path d="M 30 220 M 180 220 M 180 240 M 30 240" fill="none" stroke="rgb(0, 0, 0)" stroke-linecap="square" stroke-miterlimit="10" pointer-events="none"/><g fill="rgb(0, 0, 0)" font-family="Helvetica" font-weight="bold" text-decoration="underline" pointer-events="none" clip-path="url(#mx-clip-36-220-144-20-0)" font-size="12px"><text x="37.5" y="234.5">BorrowPerson</text></g><path d="M 0 240 M 180 240 M 180 260 L 0 260" fill="none" stroke="rgb(0, 0, 0)" stroke-linecap="square" stroke-miterlimit="10" pointer-events="none"/><path d="M 0 240 M 30 240 M 30 260 M 0 260" fill="none" stroke="rgb(0, 0, 0)" stroke-linecap="square" stroke-miterlimit="10" pointer-events="none"/><g fill="rgb(0, 0, 0)" font-family="Helvetica" font-weight="bold" pointer-events="none" clip-path="url(#mx-clip-0-240-30-20-0)" text-anchor="middle" font-size="12px"><text x="14.5" y="254.5">FK</text></g><path d="M 30 240 M 180 240 M 180 260 M 30 260" fill="none" stroke="rgb(0, 0, 0)" stroke-linecap="square" stroke-miterlimit="10" pointer-events="none"/><g fill="rgb(0, 0, 0)" font-family="Helvetica" font-weight="bold" text-decoration="underline" pointer-events="none" clip-path="url(#mx-clip-36-240-144-20-0)" font-size="12px"><text x="37.5" y="254.5">WashingMachine</text></g><path d="M 0 260 M 30 260 M 30 290 M 0 290" fill="none" stroke="rgb(0, 0, 0)" stroke-linecap="square" stroke-miterlimit="10" pointer-events="none"/><path d="M 30 260 M 180 260 M 180 290 M 30 290" fill="none" stroke="rgb(0, 0, 0)" stroke-linecap="square" stroke-miterlimit="10" pointer-events="none"/><g fill="rgb(0, 0, 0)" font-family="Helvetica" pointer-events="none" clip-path="url(#mx-clip-36-260-144-30-0)" font-size="12px"><text x="37.5" y="279.5">date startDate</text></g><path d="M 0 290 M 30 290 M 30 320 M 0 320" fill="none" stroke="rgb(0, 0, 0)" stroke-linecap="square" stroke-miterlimit="10" pointer-events="none"/><path d="M 30 290 M 180 290 M 180 320 M 30 320" fill="none" stroke="rgb(0, 0, 0)" stroke-linecap="square" stroke-miterlimit="10" pointer-events="none"/><g fill="rgb(0, 0, 0)" font-family="Helvetica" pointer-events="none" clip-path="url(#mx-clip-36-290-144-30-0)" font-size="12px"><text x="37.5" y="309.5">date endDate?</text></g><path d="M 0 320 M 30 320 M 30 350 M 0 350" fill="none" stroke="rgb(0, 0, 0)" stroke-linecap="square" stroke-miterlimit="10" pointer-events="none"/><path d="M 30 320 M 180 320 M 180 350 M 30 350" fill="none" stroke="rgb(0, 0, 0)" stroke-linecap="square" stroke-miterlimit="10" pointer-events="none"/><path d="M 0 600 L 0 570 L 260 570 L 260 600" fill="rgb(255, 255, 255)" stroke="rgb(0, 0, 0)" stroke-miterlimit="10" pointer-events="none"/><path d="M 0 600 L 0 780 L 260 780 L 260 600" fill="none" stroke="rgb(0, 0, 0)" stroke-miterlimit="10" pointer-events="none"/><path d="M 0 600 L 260 600" fill="none" stroke="rgb(0, 0, 0)" stroke-miterlimit="10" pointer-events="none"/><path d="M 30 600 L 30 630 L 30 660 L 30 690 L 30 720 L 30 750 L 30 780" fill="none" stroke="rgb(0, 0, 0)" stroke-miterlimit="10" pointer-events="none"/><g fill="rgb(0, 0, 0)" font-family="Helvetica" font-weight="bold" pointer-events="none" text-anchor="middle" font-size="12px"><text x="129.5" y="589.5">WashingMachine</text></g><path d="M 0 600 M 260 600 M 260 630 L 0 630" fill="none" stroke="rgb(0, 0, 0)" stroke-linecap="square" stroke-miterlimit="10" pointer-events="none"/><path d="M 0 600 M 30 600 M 30 630 M 0 630" fill="none" stroke="rgb(0, 0, 0)" stroke-linecap="square" stroke-miterlimit="10" pointer-events="none"/><g fill="rgb(0, 0, 0)" font-family="Helvetica" font-weight="bold" pointer-events="none" clip-path="url(#mx-clip-0-600-30-30-0)" text-anchor="middle" font-size="12px"><text x="14.5" y="619.5">PK</text></g><path d="M 30 600 M 260 600 M 260 630 M 30 630" fill="none" stroke="rgb(0, 0, 0)" stroke-linecap="square" stroke-miterlimit="10" pointer-events="none"/><g fill="rgb(0, 0, 0)" font-family="Helvetica" font-weight="bold" text-decoration="underline" pointer-events="none" clip-path="url(#mx-clip-36-600-224-30-0)" font-size="12px"><text x="37.5" y="619.5">WashingMachineId</text></g><path d="M 0 630 M 260 630 M 260 660 L 0 660" fill="none" stroke="rgb(0, 0, 0)" stroke-linecap="square" stroke-miterlimit="10" pointer-events="none"/><path d="M 0 630 M 30 630 M 30 660 M 0 660" fill="none" stroke="rgb(0, 0, 0)" stroke-linecap="square" stroke-miterlimit="10" pointer-events="none"/><g fill="rgb(0, 0, 0)" font-family="Helvetica" font-weight="bold" pointer-events="none" clip-path="url(#mx-clip-0-630-30-30-0)" text-anchor="middle" font-size="12px"><text x="14.5" y="649.5">FK</text></g><path d="M 30 630 M 260 630 M 260 660 M 30 660" fill="none" stroke="rgb(0, 0, 0)" stroke-linecap="square" stroke-miterlimit="10" pointer-events="none"/><g fill="rgb(0, 0, 0)" font-family="Helvetica" font-weight="bold" text-decoration="underline" pointer-events="none" clip-path="url(#mx-clip-36-630-224-30-0)" font-size="12px"><text x="37.5" y="649.5">ManualId</text></g><path d="M 0 660 M 260 660 M 260 690 L 0 690" fill="none" stroke="rgb(0, 0, 0)" stroke-linecap="square" stroke-miterlimit="10" pointer-events="none"/><path d="M 0 660 M 30 660 M 30 690 M 0 690" fill="none" stroke="rgb(0, 0, 0)" stroke-linecap="square" stroke-miterlimit="10" pointer-events="none"/><g fill="rgb(0, 0, 0)" font-family="Helvetica" font-weight="bold" pointer-events="none" clip-path="url(#mx-clip-0-660-30-30-0)" text-anchor="middle" font-size="12px"><text x="14.5" y="679.5">FK</text></g><path d="M 30 660 M 260 660 M 260 690 M 30 690" fill="none" stroke="rgb(0, 0, 0)" stroke-linecap="square" stroke-miterlimit="10" pointer-events="none"/><g fill="rgb(0, 0, 0)" font-family="Helvetica" font-weight="bold" text-decoration="underline" pointer-events="none" clip-path="url(#mx-clip-36-660-224-30-0)" font-size="12px"><text x="37.5" y="679.5">LocationId</text></g><path d="M 0 690 M 30 690 M 30 720 M 0 720" fill="none" stroke="rgb(0, 0, 0)" stroke-linecap="square" stroke-miterlimit="10" pointer-events="none"/><path d="M 30 690 M 260 690 M 260 720 M 30 720" fill="none" stroke="rgb(0, 0, 0)" stroke-linecap="square" stroke-miterlimit="10" pointer-events="none"/><g fill="rgb(0, 0, 0)" font-family="Helvetica" pointer-events="none" clip-path="url(#mx-clip-36-690-224-30-0)" font-size="12px"><text x="37.5" y="709.5">int Status</text></g><path d="M 0 720 M 30 720 M 30 750 M 0 750" fill="none" stroke="rgb(0, 0, 0)" stroke-linecap="square" stroke-miterlimit="10" pointer-events="none"/><path d="M 30 720 M 260 720 M 260 750 M 30 750" fill="none" stroke="rgb(0, 0, 0)" stroke-linecap="square" stroke-miterlimit="10" pointer-events="none"/><g fill="rgb(0, 0, 0)" font-family="Helvetica" pointer-events="none" clip-path="url(#mx-clip-36-720-224-30-0)" font-size="12px"><text x="37.5" y="739.5">varchar Manufacturer</text></g><path d="M 0 750 M 30 750 M 30 780 M 0 780" fill="none" stroke="rgb(0, 0, 0)" stroke-linecap="square" stroke-miterlimit="10" pointer-events="none"/><path d="M 30 750 M 260 750 M 260 780 M 30 780" fill="none" stroke="rgb(0, 0, 0)" stroke-linecap="square" stroke-miterlimit="10" pointer-events="none"/><path d="M 0 880 L 0 850 L 250 850 L 250 880" fill="rgb(255, 255, 255)" stroke="rgb(0, 0, 0)" stroke-miterlimit="10" pointer-events="none"/><path d="M 0 880 L 0 1090 L 250 1090 L 250 880" fill="none" stroke="rgb(0, 0, 0)" stroke-miterlimit="10" pointer-events="none"/><path d="M 0 880 L 250 880" fill="none" stroke="rgb(0, 0, 0)" stroke-miterlimit="10" pointer-events="none"/><path d="M 30 880 L 30 910 L 30 940 L 30 970 L 30 1000 L 30 1030 L 30 1060" fill="none" stroke="rgb(0, 0, 0)" stroke-miterlimit="10" pointer-events="none"/><g fill="rgb(0, 0, 0)" font-family="Helvetica" font-weight="bold" pointer-events="none" text-anchor="middle" font-size="12px"><text x="124.5" y="869.5">WashingMachineStatistics</text></g><path d="M 0 880 M 250 880 M 250 910 L 0 910" fill="none" stroke="rgb(0, 0, 0)" stroke-linecap="square" stroke-miterlimit="10" pointer-events="none"/><path d="M 0 880 M 30 880 M 30 910 M 0 910" fill="none" stroke="rgb(0, 0, 0)" stroke-linecap="square" stroke-miterlimit="10" pointer-events="none"/><g fill="rgb(0, 0, 0)" font-family="Helvetica" font-weight="bold" pointer-events="none" clip-path="url(#mx-clip-0-880-30-30-0)" text-anchor="middle" font-size="12px"><text x="14.5" y="899.5">PK</text></g><path d="M 30 880 M 250 880 M 250 910 M 30 910" fill="none" stroke="rgb(0, 0, 0)" stroke-linecap="square" stroke-miterlimit="10" pointer-events="none"/><g fill="rgb(0, 0, 0)" font-family="Helvetica" font-weight="bold" text-decoration="underline" pointer-events="none" clip-path="url(#mx-clip-36-880-214-30-0)" font-size="12px"><text x="37.5" y="899.5">WMStatId</text></g><path d="M 0 910 M 30 910 M 30 940 M 0 940" fill="none" stroke="rgb(0, 0, 0)" stroke-linecap="square" stroke-miterlimit="10" pointer-events="none"/><path d="M 30 910 M 250 910 M 250 940 M 30 940" fill="none" stroke="rgb(0, 0, 0)" stroke-linecap="square" stroke-miterlimit="10" pointer-events="none"/><g fill="rgb(0, 0, 0)" font-family="Helvetica" pointer-events="none" clip-path="url(#mx-clip-36-910-214-30-0)" font-size="12px"><text x="37.5" y="929.5">int WashingMachineId</text></g><path d="M 0 940 M 30 940 M 30 970 M 0 970" fill="none" stroke="rgb(0, 0, 0)" stroke-linecap="square" stroke-miterlimit="10" pointer-events="none"/><path d="M 30 940 M 250 940 M 250 970 M 30 970" fill="none" stroke="rgb(0, 0, 0)" stroke-linecap="square" stroke-miterlimit="10" pointer-events="none"/><g fill="rgb(0, 0, 0)" font-family="Helvetica" pointer-events="none" clip-path="url(#mx-clip-36-940-214-30-0)" font-size="12px"><text x="37.5" y="959.5">date DateStat</text></g><path d="M 0 970 M 30 970 M 30 1000 M 0 1000" fill="none" stroke="rgb(0, 0, 0)" stroke-linecap="square" stroke-miterlimit="10" pointer-events="none"/><path d="M 30 970 M 250 970 M 250 1000 M 30 1000" fill="none" stroke="rgb(0, 0, 0)" stroke-linecap="square" stroke-miterlimit="10" pointer-events="none"/><g fill="rgb(0, 0, 0)" font-family="Helvetica" pointer-events="none" clip-path="url(#mx-clip-36-970-214-30-0)" font-size="12px"><text x="37.5" y="989.5">Array[Boolean] PerHourUsage</text></g><path d="M 0 1000 M 30 1000 M 30 1030 M 0 1030" fill="none" stroke="rgb(0, 0, 0)" stroke-linecap="square" stroke-miterlimit="10" pointer-events="none"/><path d="M 30 1000 M 250 1000 M 250 1030 M 30 1030" fill="none" stroke="rgb(0, 0, 0)" stroke-linecap="square" stroke-miterlimit="10" pointer-events="none"/><g fill="rgb(0, 0, 0)" font-family="Helvetica" pointer-events="none" clip-path="url(#mx-clip-36-1000-214-30-0)" font-size="12px"><text x="37.5" y="1019.5">Array[Num] PerHourCumulative</text></g><path d="M 0 1030 M 30 1030 M 30 1060 M 0 1060" fill="none" stroke="rgb(0, 0, 0)" stroke-linecap="square" stroke-miterlimit="10" pointer-events="none"/><path d="M 30 1030 M 250 1030 M 250 1060 M 30 1060" fill="none" stroke="rgb(0, 0, 0)" stroke-linecap="square" stroke-miterlimit="10" pointer-events="none"/><g fill="rgb(0, 0, 0)" font-family="Helvetica" pointer-events="none" clip-path="url(#mx-clip-36-1030-214-30-0)" font-size="12px"><text x="37.5" y="1049.5">int CumulativeInt</text></g><path d="M 320 30 L 320 0 L 560 0 L 560 30" fill="rgb(255, 255, 255)" stroke="rgb(0, 0, 0)" stroke-miterlimit="10" pointer-events="none"/><path d="M 320 30 L 320 150 L 560 150 L 560 30" fill="none" stroke="rgb(0, 0, 0)" stroke-miterlimit="10" pointer-events="none"/><path d="M 320 30 L 560 30" fill="none" stroke="rgb(0, 0, 0)" stroke-miterlimit="10" pointer-events="none"/><path d="M 350 30 L 350 60 L 350 90 L 350 120 L 350 150" fill="none" stroke="rgb(0, 0, 0)" stroke-miterlimit="10" pointer-events="none"/><g fill="rgb(0, 0, 0)" font-family="Helvetica" font-weight="bold" pointer-events="none" text-anchor="middle" font-size="12px"><text x="439.5" y="19.5">BorrowPerson</text></g><path d="M 320 30 M 560 30 M 560 60 L 320 60" fill="none" stroke="rgb(0, 0, 0)" stroke-linecap="square" stroke-miterlimit="10" pointer-events="none"/><path d="M 320 30 M 350 30 M 350 60 M 320 60" fill="none" stroke="rgb(0, 0, 0)" stroke-linecap="square" stroke-miterlimit="10" pointer-events="none"/><g fill="rgb(0, 0, 0)" font-family="Helvetica" font-weight="bold" pointer-events="none" clip-path="url(#mx-clip-320-30-30-30-0)" text-anchor="middle" font-size="12px"><text x="334.5" y="49.5">PK</text></g><path d="M 350 30 M 560 30 M 560 60 M 350 60" fill="none" stroke="rgb(0, 0, 0)" stroke-linecap="square" stroke-miterlimit="10" pointer-events="none"/><g fill="rgb(0, 0, 0)" font-family="Helvetica" font-weight="bold" text-decoration="underline" pointer-events="none" clip-path="url(#mx-clip-356-30-204-30-0)" font-size="12px"><text x="357.5" y="49.5">UniqueID</text></g><path d="M 320 60 M 350 60 M 350 90 M 320 90" fill="none" stroke="rgb(0, 0, 0)" stroke-linecap="square" stroke-miterlimit="10" pointer-events="none"/><path d="M 350 60 M 560 60 M 560 90 M 350 90" fill="none" stroke="rgb(0, 0, 0)" stroke-linecap="square" stroke-miterlimit="10" pointer-events="none"/><g fill="rgb(0, 0, 0)" font-family="Helvetica" pointer-events="none" clip-path="url(#mx-clip-356-60-204-30-0)" font-size="12px"><text x="357.5" y="79.5">varchar Name</text></g><path d="M 320 90 M 350 90 M 350 120 M 320 120" fill="none" stroke="rgb(0, 0, 0)" stroke-linecap="square" stroke-miterlimit="10" pointer-events="none"/><path d="M 350 90 M 560 90 M 560 120 M 350 120" fill="none" stroke="rgb(0, 0, 0)" stroke-linecap="square" stroke-miterlimit="10" pointer-events="none"/><g fill="rgb(0, 0, 0)" font-family="Helvetica" pointer-events="none" clip-path="url(#mx-clip-356-90-204-30-0)" font-size="12px"><text x="357.5" y="109.5">varchar Surname</text></g><path d="M 320 120 M 350 120 M 350 150 M 320 150" fill="none" stroke="rgb(0, 0, 0)" stroke-linecap="square" stroke-miterlimit="10" pointer-events="none"/><path d="M 350 120 M 560 120 M 560 150 M 350 150" fill="none" stroke="rgb(0, 0, 0)" stroke-linecap="square" stroke-miterlimit="10" pointer-events="none"/><path d="M 510 550 L 510 520 L 690 520 L 690 550" fill="rgb(255, 255, 255)" stroke="rgb(0, 0, 0)" stroke-miterlimit="10" pointer-events="none"/><path d="M 510 550 L 510 670 L 690 670 L 690 550" fill="none" stroke="rgb(0, 0, 0)" stroke-miterlimit="10" pointer-events="none"/><path d="M 510 550 L 690 550" fill="none" stroke="rgb(0, 0, 0)" stroke-miterlimit="10" pointer-events="none"/><path d="M 540 550 L 540 580 L 540 610 L 540 640 L 540 670" fill="none" stroke="rgb(0, 0, 0)" stroke-miterlimit="10" pointer-events="none"/><g fill="rgb(0, 0, 0)" font-family="Helvetica" font-weight="bold" pointer-events="none" text-anchor="middle" font-size="12px"><text x="599.5" y="539.5">Manual</text></g><path d="M 510 550 M 690 550 M 690 580 L 510 580" fill="none" stroke="rgb(0, 0, 0)" stroke-linecap="square" stroke-miterlimit="10" pointer-events="none"/><path d="M 510 550 M 540 550 M 540 580 M 510 580" fill="none" stroke="rgb(0, 0, 0)" stroke-linecap="square" stroke-miterlimit="10" pointer-events="none"/><g fill="rgb(0, 0, 0)" font-family="Helvetica" font-weight="bold" pointer-events="none" clip-path="url(#mx-clip-510-550-30-30-0)" text-anchor="middle" font-size="12px"><text x="524.5" y="569.5">PK</text></g><path d="M 540 550 M 690 550 M 690 580 M 540 580" fill="none" stroke="rgb(0, 0, 0)" stroke-linecap="square" stroke-miterlimit="10" pointer-events="none"/><g fill="rgb(0, 0, 0)" font-family="Helvetica" font-weight="bold" text-decoration="underline" pointer-events="none" clip-path="url(#mx-clip-546-550-144-30-0)" font-size="12px"><text x="547.5" y="569.5">ManualId</text></g><path d="M 510 580 M 540 580 M 540 610 M 510 610" fill="none" stroke="rgb(0, 0, 0)" stroke-linecap="square" stroke-miterlimit="10" pointer-events="none"/><path d="M 540 580 M 690 580 M 690 610 M 540 610" fill="none" stroke="rgb(0, 0, 0)" stroke-linecap="square" stroke-miterlimit="10" pointer-events="none"/><g fill="rgb(0, 0, 0)" font-family="Helvetica" pointer-events="none" clip-path="url(#mx-clip-546-580-144-30-0)" font-size="12px"><text x="547.5" y="599.5">varchar FileName</text></g><path d="M 510 610 M 540 610 M 540 640 M 510 640" fill="none" stroke="rgb(0, 0, 0)" stroke-linecap="square" stroke-miterlimit="10" pointer-events="none"/><path d="M 540 610 M 690 610 M 690 640 M 540 640" fill="none" stroke="rgb(0, 0, 0)" stroke-linecap="square" stroke-miterlimit="10" pointer-events="none"/><g fill="rgb(0, 0, 0)" font-family="Helvetica" pointer-events="none" clip-path="url(#mx-clip-546-610-144-30-0)" font-size="12px"><text x="547.5" y="629.5">varchar Name</text></g><path d="M 510 640 M 540 640 M 540 670 M 510 670" fill="none" stroke="rgb(0, 0, 0)" stroke-linecap="square" stroke-miterlimit="10" pointer-events="none"/><path d="M 540 640 M 690 640 M 690 670 M 540 670" fill="none" stroke="rgb(0, 0, 0)" stroke-linecap="square" stroke-miterlimit="10" pointer-events="none"/><path d="M 510 830 L 510 800 L 690 800 L 690 830" fill="rgb(255, 255, 255)" stroke="rgb(0, 0, 0)" stroke-miterlimit="10" pointer-events="none"/><path d="M 510 830 L 510 990 L 690 990 L 690 830" fill="none" stroke="rgb(0, 0, 0)" stroke-miterlimit="10" pointer-events="none"/><path d="M 510 830 L 690 830" fill="none" stroke="rgb(0, 0, 0)" stroke-miterlimit="10" pointer-events="none"/><path d="M 540 830 L 540 860 L 540 890 L 540 920 L 540 950 L 540 980" fill="none" stroke="rgb(0, 0, 0)" stroke-miterlimit="10" pointer-events="none"/><g fill="rgb(0, 0, 0)" font-family="Helvetica" font-weight="bold" pointer-events="none" text-anchor="middle" font-size="12px"><text x="599.5" y="819.5">Location</text></g><path d="M 510 830 M 690 830 M 690 860 L 510 860" fill="none" stroke="rgb(0, 0, 0)" stroke-linecap="square" stroke-miterlimit="10" pointer-events="none"/><path d="M 510 830 M 540 830 M 540 860 M 510 860" fill="none" stroke="rgb(0, 0, 0)" stroke-linecap="square" stroke-miterlimit="10" pointer-events="none"/><g fill="rgb(0, 0, 0)" font-family="Helvetica" font-weight="bold" pointer-events="none" clip-path="url(#mx-clip-510-830-30-30-0)" text-anchor="middle" font-size="12px"><text x="524.5" y="849.5">PK</text></g><path d="M 540 830 M 690 830 M 690 860 M 540 860" fill="none" stroke="rgb(0, 0, 0)" stroke-linecap="square" stroke-miterlimit="10" pointer-events="none"/><g fill="rgb(0, 0, 0)" font-family="Helvetica" font-weight="bold" text-decoration="underline" pointer-events="none" clip-path="url(#mx-clip-546-830-144-30-0)" font-size="12px"><text x="547.5" y="849.5">LocationId</text></g><path d="M 510 860 M 540 860 M 540 890 M 510 890" fill="none" stroke="rgb(0, 0, 0)" stroke-linecap="square" stroke-miterlimit="10" pointer-events="none"/><path d="M 540 860 M 690 860 M 690 890 M 540 890" fill="none" stroke="rgb(0, 0, 0)" stroke-linecap="square" stroke-miterlimit="10" pointer-events="none"/><g fill="rgb(0, 0, 0)" font-family="Helvetica" pointer-events="none" clip-path="url(#mx-clip-546-860-144-30-0)" font-size="12px"><text x="547.5" y="879.5">int Floor</text></g><path d="M 510 890 M 540 890 M 540 920 M 510 920" fill="none" stroke="rgb(0, 0, 0)" stroke-linecap="square" stroke-miterlimit="10" pointer-events="none"/><path d="M 540 890 M 690 890 M 690 920 M 540 920" fill="none" stroke="rgb(0, 0, 0)" stroke-linecap="square" stroke-miterlimit="10" pointer-events="none"/><g fill="rgb(0, 0, 0)" font-family="Helvetica" pointer-events="none" clip-path="url(#mx-clip-546-890-144-30-0)" font-size="12px"><text x="547.5" y="909.5">int RoomNum</text></g><path d="M 510 920 M 540 920 M 540 950 M 510 950" fill="none" stroke="rgb(0, 0, 0)" stroke-linecap="square" stroke-miterlimit="10" pointer-events="none"/><path d="M 540 920 M 690 920 M 690 950 M 540 950" fill="none" stroke="rgb(0, 0, 0)" stroke-linecap="square" stroke-miterlimit="10" pointer-events="none"/><g fill="rgb(0, 0, 0)" font-family="Helvetica" pointer-events="none" clip-path="url(#mx-clip-546-920-144-30-0)" font-size="12px"><text x="547.5" y="939.5">int DoorNum</text></g><path d="M 510 950 M 540 950 M 540 980 M 510 980" fill="none" stroke="rgb(0, 0, 0)" stroke-linecap="square" stroke-miterlimit="10" pointer-events="none"/><path d="M 540 950 M 690 950 M 690 980 M 540 980" fill="none" stroke="rgb(0, 0, 0)" stroke-linecap="square" stroke-miterlimit="10" pointer-events="none"/><g fill="rgb(0, 0, 0)" font-family="Helvetica" pointer-events="none" clip-path="url(#mx-clip-546-950-144-30-0)" font-size="12px"><text x="547.5" y="969.5">char Building</text></g><path d="M 260 675 L 504.45 812.83" fill="none" stroke="rgb(0, 0, 0)" stroke-miterlimit="10" pointer-events="none"/><path d="M 509.03 815.41 L 501.21 815.02 L 504.45 812.83 L 504.65 808.92 Z" fill="rgb(0, 0, 0)" stroke="rgb(0, 0, 0)" stroke-miterlimit="10" pointer-events="none"/><path d="M 260 645 L 505.27 534.76" fill="none" stroke="rgb(0, 0, 0)" stroke-miterlimit="10" pointer-events="none"/><path d="M 510.06 532.61 L 505.11 538.67 L 505.27 534.76 L 502.24 532.29 Z" fill="rgb(0, 0, 0)" stroke="rgb(0, 0, 0)" stroke-miterlimit="10" pointer-events="none"/><path d="M 180 230 L 317.54 14.37" fill="none" stroke="rgb(0, 0, 0)" stroke-miterlimit="10" pointer-events="none"/><path d="M 320.36 9.94 L 319.55 17.73 L 317.54 14.37 L 313.64 13.96 Z" fill="rgb(0, 0, 0)" stroke="rgb(0, 0, 0)" stroke-miterlimit="10" pointer-events="none"/><path d="M 180 250 L 220 250 L 220 460 L 130 460 L 130 563.63" fill="none" stroke="rgb(0, 0, 0)" stroke-miterlimit="10" pointer-events="none"/><path d="M 130 568.88 L 126.5 561.88 L 130 563.63 L 133.5 561.88 Z" fill="rgb(0, 0, 0)" stroke="rgb(0, 0, 0)" stroke-miterlimit="10" pointer-events="none"/></g></svg>